<?xml version="1.0" standalone="no"?>
<!DOCTYPE svg PUBLIC "-//W3C//DTD SVG 20010904//EN"
 "http://www.w3.org/TR/2001/REC-SVG-20010904/DTD/svg10.dtd">
<svg version="1.0" xmlns="http://www.w3.org/2000/svg"
 width="260.000000pt" height="260.000000pt" viewBox="0 0 260.000000 260.000000"
 preserveAspectRatio="xMidYMid meet">
<metadata>
Created by potrace 1.11, written by Peter Selinger 2001-2013
</metadata>
<g transform="translate(0.000000,260.000000) scale(0.100000,-0.100000)"
fill="#000000" stroke="none">
<path d="M1081 2585 c-459 -81 -848 -408 -1005 -845 -51 -141 -67 -226 -73
-391 -11 -298 54 -532 212 -770 198 -297 503 -500 850 -564 72 -14 128 -16
280 -12 165 4 202 8 284 31 255 72 434 178 613 364 185 193 294 406 343 668
27 139 17 426 -18 556 -129 474 -486 825 -959 944 -132 33 -393 42 -527 19z
m468 -89 c366 -80 670 -313 838 -642 96 -187 134 -349 134 -564 0 -596 -432
-1099 -1030 -1201 -36 -7 -124 -11 -196 -11 -312 0 -596 113 -823 327 -271
255 -405 579 -389 944 19 448 273 840 677 1044 92 46 235 93 344 112 103 18
342 13 445 -9z"/>
<path d="M1145 2419 c-235 -34 -467 -152 -640 -324 -74 -75 -202 -242 -177
-234 6 2 108 92 227 199 119 107 220 195 224 195 5 0 270 -225 590 -500 l582
-500 -185 -3 -186 -2 0 -524 0 -524 53 15 c28 8 94 35 144 58 313 147 535 415
624 755 31 118 38 340 15 463 -59 312 -239 582 -503 754 -223 145 -508 209
-768 172z"/>
<path d="M590 465 c0 -42 3 -47 53 -84 72 -54 170 -106 266 -141 45 -17 86
-30 91 -30 12 0 13 78 4 208 l-7 92 -203 0 -204 0 0 -45z"/>
</g>
</svg>
